<svg width="25" height="25" viewBox="0 0 25 25" fill="none" xmlns="http://www.w3.org/2000/svg">
<path d="M3.83789 16.4317C3.83789 16.4317 3.48047 17.0918 3.45313 17.5039C3.42578 17.916 3.70118 21.2715 4.30469 22.0137C4.90821 22.7559 6.75196 24.709 12.1953 24.7637C17.6387 24.8184 20.416 22.3438 20.7188 21.8496C21.0215 21.3555 21.4063 19.0449 21.4336 17.2305C21.4609 15.416 11.7832 16.6797 11.7832 16.6797L3.83789 16.4317Z" fill="#FBB75A"/>
<path d="M12.0859 20.8301C16.9258 20.9668 21.4062 17.998 21.4062 17.998L21.2695 19.4824C21.2695 19.4824 17.5859 22.3145 12.168 22.1777C6.75 22.041 3.61719 19.4824 3.61719 19.4824L3.48047 18.1895C3.48047 18.1895 7.85352 20.709 12.0859 20.8301Z" fill="#F2A05B"/>
<path d="M12.6914 9.28126C10.6289 9.29102 4.41601 9.7754 3.7832 12.416C3.15039 15.0566 3.23242 17.5313 3.34375 17.75C3.45312 17.9707 3.69922 17.5899 4.27929 17.8047C5.02148 18.0801 4.9668 20.0859 6.31445 20.4434C7.66211 20.8008 7.68945 18.959 9.22851 19.0684C10.7676 19.1777 10.0527 21.2422 12.0879 21.2676C14.1777 21.2949 13.4023 19.2246 14.8652 19.041C16.3125 18.8574 15.5527 21.1035 17.5605 20.8008C19.5684 20.4981 19.3359 17.6406 20.3633 17.3379C21.1426 17.1094 21.0762 17.875 21.4453 17.8418C21.748 17.8145 21.6289 13.625 21.3535 12.6914C21.0781 11.7578 18.4922 9.25391 12.6914 9.28126Z" fill="url(#paint0_radial_13_61)"/>
<path d="M6.43555 15.1797C4.97266 14.5625 4.5 13.9785 4.26368 13.6817C4.09961 13.4746 3.85157 13.3926 3.71289 13.5586C3.57618 13.7227 3.64454 13.9024 3.79493 14.0801C3.94532 14.2598 4.61914 15.2891 6.35157 15.8535C7.875 16.3496 8.88086 16.418 9.26563 16.4317C9.69336 16.4473 9.8711 15.9102 9.30664 15.8399C8.66016 15.7598 8.03125 15.8535 6.43555 15.1797ZM10.8301 16.0371C10.4551 16.0274 10.3164 16.2383 10.3164 16.4043C10.3164 16.6055 10.4902 16.7168 10.793 16.7344C11.0957 16.752 11.2695 16.5508 11.2695 16.4141C11.2715 16.2754 11.1875 16.0449 10.8301 16.0371Z" fill="#FDFFFF"/>
<path d="M4.91016 17.3398C4.73828 17.5078 4.81055 17.7031 4.89258 17.8047C5.02735 17.9707 5.26953 17.998 5.39453 17.9004C5.53711 17.791 5.51953 17.5879 5.42969 17.4531C5.31446 17.2773 5.08008 17.1719 4.91016 17.3398ZM5.39063 18.0625C5.1543 18.1953 5.25977 18.4902 5.38672 18.7324C5.65821 19.248 5.74414 19.668 6.05664 19.875C6.37305 20.084 6.76367 19.9395 6.72656 19.7227C6.66797 19.377 6.45508 19.6387 6.27149 19.2012C6.19531 19.0195 6.03906 18.7285 5.85742 18.3359C5.75196 18.1055 5.62891 17.9277 5.39063 18.0625ZM10.8945 19.4551C10.6621 19.6211 10.8027 20.041 11.0957 20.3711C11.3887 20.7012 11.8008 20.9668 12.25 20.8477C12.5977 20.7559 12.5703 20.3711 12.332 20.2617C12.0938 20.1523 11.8105 20.2168 11.5527 19.877C11.4277 19.7109 11.252 19.1992 10.8945 19.4551ZM16.4141 19.0938C16.1836 19.2637 16.4004 19.6172 16.543 19.8613C16.6855 20.1055 17.1563 20.5742 17.4316 20.2969C17.6328 20.0938 17.2539 19.8477 17.0762 19.582C16.9434 19.3809 16.7207 18.8652 16.4141 19.0938ZM16.0176 18.457C15.8652 18.5684 15.8887 18.7441 15.9434 18.8418C16.0176 18.9707 16.2559 19.0254 16.3926 18.9063C16.5254 18.791 16.4473 18.6035 16.375 18.5117C16.3027 18.4199 16.1191 18.3828 16.0176 18.457Z" fill="#FCE9CA"/>
<path d="M16.875 7.72852C16.875 7.72852 15.3652 9.81055 15.4609 10.2246C15.5352 10.5508 15.8867 10.9004 16.6387 10.9512C17.3906 11.002 17.8613 10.6523 17.9687 10.3203C18.1133 9.87891 17.6426 8.47266 17.4727 8.19336C17.2324 7.79688 17.0156 7.74023 16.875 7.72852ZM19.9961 9.60742L18.373 11.8809C18.373 11.8809 18.4219 12.3789 18.9102 12.5938C19.4199 12.8164 20.4609 12.8301 20.7598 12.3945C21.0996 11.9004 20.9531 11.0508 20.7812 10.5371C20.6484 10.1348 20.3672 9.56445 19.9961 9.60742ZM17.248 12.1758L15.6777 14.5879C15.6777 14.5879 15.6602 15.1855 16.3691 15.3516C16.9316 15.4824 17.9648 15.4883 18.3496 15.1582C18.7344 14.8281 18.7031 14.1641 18.3711 13.4668C18.0078 12.709 17.4687 11.9961 17.248 12.1758ZM13.3379 12.7676L11.2812 15.2559C11.2812 15.2559 11.2402 15.7363 11.748 15.9707C12.4004 16.2734 13.4043 16.2578 13.9141 15.9844C14.3613 15.7441 14.4297 14.9824 14.2676 14.5059C14.1348 14.1172 13.9512 13.7871 13.8828 13.6074C13.8144 13.4297 13.584 12.877 13.3379 12.7676ZM8.91015 11.9277L7.1582 14.6641C7.1582 14.6641 7.21289 15.3027 7.88086 15.4336C8.45703 15.5469 9.40625 15.6133 9.73632 15.1992C10.0664 14.7852 10.0801 13.7344 9.76367 12.9922C9.44726 12.252 9.17187 12.0254 8.91015 11.9277ZM6.25 9.34766L6.01562 9.26367L4.45312 11.7324C4.45312 11.7324 4.4082 12.168 4.77148 12.4004C5.11523 12.6211 6.20898 12.7305 6.79882 12.4414C7.39062 12.1523 7.34765 11.1836 6.93554 10.3516C6.55468 9.58008 6.25 9.34766 6.25 9.34766ZM9.11718 7.52539L7.59961 10.1445C7.59961 10.1445 7.66601 10.4844 8.18945 10.6328C8.70312 10.7793 9.375 10.752 9.71875 10.4863C10.0644 10.2207 10.1562 9.63672 9.99804 8.95898C9.89062 8.49609 9.47461 7.6582 9.11718 7.52539Z" fill="#EE5B4A"/>
<path d="M7.61914 12.8828C7.29297 13.5859 6.83594 14.6289 7.35742 14.9726C7.87891 15.3164 8.65039 14.7656 8.92383 13.7344C9.19727 12.7031 9.24024 12.1875 8.97852 11.9668C8.71875 11.75 8.04492 11.9629 7.61914 12.8828ZM5.84961 9.18358C5.47852 9.20702 5.05274 9.78124 4.83985 10.3457C4.62695 10.9101 4.37891 11.6113 4.46875 11.8379C4.5586 12.0644 5.16992 12.3398 5.43164 11.8594C5.69336 11.3789 5.64063 10.7363 5.69922 10.4082C5.80274 9.83006 6.25 9.3496 6.25 9.3496C6.25 9.3496 6.09766 9.16796 5.84961 9.18358ZM8.79102 7.4121C8.52539 7.42772 8.27344 7.53905 8.04688 8.28124C7.92383 8.68749 7.57617 9.15819 7.54297 9.60155C7.50977 10.0469 7.60938 10.1621 7.60938 10.1621C7.60938 10.1621 8.2461 10.2851 8.49414 9.78905C8.73242 9.31444 8.6582 8.83007 8.73828 8.60546C8.81836 8.37889 9.1836 7.55663 9.1836 7.55663C9.1836 7.55663 9.02344 7.40038 8.79102 7.4121Z" fill="#FD6F42"/>
<path d="M16.8105 7.71484C16.5313 7.70117 16.123 8.04687 15.8633 8.66406C15.6016 9.28124 15.4434 9.95117 15.4551 10.1484C15.4668 10.3457 16.498 10.3691 16.8613 9.77343C17.0898 9.39843 17.0781 8.39257 17.0527 8.15038C17.0293 7.90624 17.1016 7.72851 16.8105 7.71484ZM19.9102 9.5996C19.6699 9.63867 19.1035 9.77734 18.6465 10.7637C18.3613 11.3789 18.2754 11.9707 18.4824 12.0566C18.6895 12.1426 19.2539 12.2285 19.5117 11.9062C19.7695 11.584 20.0547 10.707 20.1191 10.2695C20.1816 9.83593 20.2246 9.54882 19.9102 9.5996ZM15.7363 14.7539C16.0449 15.0352 16.6328 14.7695 16.8438 14.5195C17.166 14.1348 17.4355 13.3301 17.4492 12.7676C17.459 12.3594 17.5527 12.1289 17.1953 12.1484C17.0723 12.1562 16.7344 12.2168 16.3438 12.7949C16.0332 13.2519 15.8555 13.6133 15.752 14.0605C15.6641 14.4316 15.6465 14.6719 15.7363 14.7539ZM12.9316 12.6289C12.7324 12.6211 12.3535 12.7383 11.9629 13.3848C11.5703 14.0312 11.125 15.0762 11.3164 15.3984C11.5098 15.7207 11.9824 15.7559 12.4648 15.5566C12.9453 15.3574 13.2754 14.6621 13.3027 14.3809C13.3301 14.0996 13.5156 12.8965 13.3574 12.7793C13.1992 12.6641 13.1035 12.6367 12.9316 12.6289Z" fill="#FF6E45"/>
<path d="M20.3711 5.08398C20.3711 7.80469 16.0234 10.2168 12.6348 10.2168C9.24609 10.2168 4.93555 7.6582 4.93555 4.9375C4.93555 2.2168 9.18555 0.0507812 12.5723 0.0507812C15.959 0.0507812 20.3711 2.36328 20.3711 5.08398Z" fill="url(#paint1_radial_13_61)"/>
<path d="M14.2168 6.07813C14.2852 5.98243 15.5723 6.08985 15.6875 6.11915C15.7422 6.13282 15.7285 11.041 15.6602 11.082C15.6016 11.1172 15.3711 11.3301 14.9316 11.3301C14.4922 11.3301 14.2441 11.1797 14.1621 11.1231C14.0801 11.0684 14.1484 6.17384 14.2168 6.07813Z" fill="#FEA8A8"/>
<path d="M11.8535 7.28906C11.8008 7.33398 11.7852 12.0742 11.8262 12.1152C11.8672 12.1562 12.1426 12.4043 12.6777 12.3906C13.2148 12.3769 13.4609 12.1836 13.502 12.1426C13.543 12.1016 13.5293 7.28906 13.4883 7.26171C13.4473 7.23242 11.9355 7.21875 11.8535 7.28906Z" fill="#EC7FAE"/>
<path d="M9.54297 6.27149C9.47657 6.31055 9.47461 11.125 9.50196 11.166C9.5293 11.207 9.92774 11.3457 10.2988 11.3457C10.6699 11.3457 11.0273 11.2637 11.0684 11.2227C11.1094 11.1816 11.082 6.32813 11.041 6.27344C11 6.21875 9.61133 6.23047 9.54297 6.27149Z" fill="#93C7EE"/>
<path d="M12.6914 2.92969C12.7734 2.92969 12.8848 3.57617 13.0352 3.94727C13.1855 4.31836 13.75 5.24023 13.5293 6.03711C13.2891 6.91016 11.9277 7.08008 11.6328 5.94141C11.4258 5.14453 12.127 4.31836 12.3066 3.94727C12.4297 3.69141 12.6348 2.92969 12.6914 2.92969Z" fill="url(#paint2_radial_13_61)"/>
<path d="M14.9043 1.92578C14.9043 1.92578 14.7012 2.85156 14.4512 3.24609C14.0937 3.81055 13.8672 4.58203 14.1484 5.21289C14.5059 6.00977 15.9375 5.96875 15.9629 4.60742C15.9766 3.89258 15.6641 3.51367 15.4414 3.10938C15.2891 2.83398 15 1.95313 14.9043 1.92578Z" fill="url(#paint3_radial_13_61)"/>
<path d="M10.3535 2.07812C10.3535 2.07812 9.98242 3 9.74805 3.34375C9.51367 3.6875 9.09766 4.49805 9.33594 5.14453C9.625 5.92773 10.9043 6.02148 11.1504 4.99414C11.3145 4.30664 10.957 3.78516 10.7109 3.2207C10.5566 2.86523 10.3535 2.07812 10.3535 2.07812Z" fill="url(#paint4_radial_13_61)"/>
<defs>
<radialGradient id="paint0_radial_13_61" cx="0" cy="0" r="1" gradientUnits="userSpaceOnUse" gradientTransform="translate(12.757 12.251) rotate(91.1173) scale(8.94229 19.4668)">
<stop offset="0.445" stop-color="#FEEAC9"/>
<stop offset="0.565" stop-color="#FEE7C2"/>
<stop offset="0.741" stop-color="#FEDEAE"/>
<stop offset="0.952" stop-color="#FFCF8D"/>
<stop offset="1" stop-color="#FFCB85"/>
</radialGradient>
<radialGradient id="paint1_radial_13_61" cx="0" cy="0" r="1" gradientUnits="userSpaceOnUse" gradientTransform="translate(12.6545 5.13353) scale(7.62188 4.69279)">
<stop offset="0.034" stop-color="#FFE265" stop-opacity="0.7"/>
<stop offset="0.112" stop-color="#FFE575" stop-opacity="0.643"/>
<stop offset="0.417" stop-color="#FFF0B0" stop-opacity="0.422"/>
<stop offset="0.677" stop-color="#FFF8DB" stop-opacity="0.234"/>
<stop offset="0.88" stop-color="#FFFDF5" stop-opacity="0.087"/>
<stop offset="1" stop-color="white" stop-opacity="0"/>
</radialGradient>
<radialGradient id="paint2_radial_13_61" cx="0" cy="0" r="1" gradientUnits="userSpaceOnUse" gradientTransform="translate(12.6775 7.02695) scale(3.79453 3.79453)">
<stop offset="0.17" stop-color="#FF9616"/>
<stop offset="0.654" stop-color="#FFD429"/>
</radialGradient>
<radialGradient id="paint3_radial_13_61" cx="0" cy="0" r="1" gradientUnits="userSpaceOnUse" gradientTransform="translate(15.0805 6.0209) scale(3.71953)">
<stop offset="0.17" stop-color="#FF9616"/>
<stop offset="0.654" stop-color="#FFD429"/>
</radialGradient>
<radialGradient id="paint4_radial_13_61" cx="0" cy="0" r="1" gradientUnits="userSpaceOnUse" gradientTransform="translate(10.3168 6.01992) scale(3.68223)">
<stop offset="0.17" stop-color="#FF9616"/>
<stop offset="0.654" stop-color="#FFD429"/>
</radialGradient>
</defs>
</svg>
