<svg width="25" height="25" viewBox="0 0 25 25" fill="none" xmlns="http://www.w3.org/2000/svg">
<path d="M5.36666 2.175C5.36666 2.175 5.65694 1.47847 6.52014 1.59305C7.38333 1.70764 13.2333 2.6993 16.0174 3.99167C18.8021 5.28333 21.9403 6.81041 23.9049 9.11944C24.4257 9.73264 24.2139 10.1812 24.2139 10.1812L23.4944 15.3465C23.4944 15.3465 23.2861 16.3806 22.2882 16.6562L1.74097 22.3187C1.74097 22.3187 0.694443 22.5576 0.694443 21.4806V16.0875C0.694443 16.0875 0.799998 15.4396 1.05625 14.6812C1.3118 13.9208 5.36666 2.175 5.36666 2.175Z" fill="#F4900C"/>
<path d="M21.2562 14.2687C18.1674 11.3118 10.8333 7.86666 5.39931 7.34861C5.32356 7.34209 5.24782 7.36103 5.18405 7.40241C5.12028 7.44379 5.07213 7.50526 5.04722 7.57708C5.04722 7.57708 0.6875 20.5007 0.6875 20.7146C0.6875 20.8187 0.736111 20.9181 0.817361 20.9826C0.858218 21.0139 0.905562 21.0356 0.955914 21.0462C1.00627 21.0568 1.05835 21.0559 1.10833 21.0437L21.5382 15.4083C21.6674 15.375 21.7319 15.3014 21.7549 15.1694C21.7972 14.9389 21.7021 14.6944 21.2562 14.2687Z" fill="#A0041E"/>
<path d="M21.7521 15.1938L0.694443 20.8535V15.9146C0.694443 15.9146 4.39653 7.59862 5.1368 2.54306C16.766 4.22223 22.3257 10.2625 22.3257 10.2625L21.7521 15.1938Z" fill="#A0041E"/>
<path d="M5.68611 17.7306C5.68611 17.9652 5.63989 18.1975 5.55008 18.4142C5.46028 18.631 5.32865 18.8279 5.16272 18.9938C4.9968 19.1596 4.79981 19.2912 4.58303 19.3809C4.36625 19.4706 4.13392 19.5168 3.8993 19.5167C3.42551 19.5167 2.97111 19.3285 2.63609 18.9934C2.30106 18.6584 2.11285 18.204 2.11285 17.7302C2.11285 17.2564 2.30106 16.802 2.63609 16.467C2.97111 16.132 3.42551 15.9438 3.8993 15.9438C4.13398 15.9437 4.36637 15.9898 4.58319 16.0796C4.80002 16.1693 4.99703 16.301 5.16297 16.4669C5.32891 16.6328 5.46052 16.8298 5.55028 17.0467C5.64005 17.2635 5.6862 17.4959 5.68611 17.7306ZM9.15833 14.9528C9.15833 15.1874 9.11211 15.4197 9.02231 15.6365C8.9325 15.8532 8.80088 16.0501 8.63495 16.216C8.46902 16.3819 8.27204 16.5134 8.05526 16.6031C7.83847 16.6929 7.60614 16.739 7.37153 16.7389C7.13693 16.7389 6.90462 16.6927 6.68788 16.6029C6.47114 16.5131 6.2742 16.3815 6.10831 16.2157C5.94242 16.0498 5.81083 15.8528 5.72105 15.6361C5.63128 15.4193 5.58507 15.187 5.58507 14.9524C5.58507 14.7178 5.63128 14.4855 5.72105 14.2688C5.81083 14.052 5.94242 13.8551 6.10831 13.6892C6.2742 13.5233 6.47114 13.3917 6.68788 13.302C6.90462 13.2122 7.13693 13.166 7.37153 13.166C7.6062 13.1659 7.83859 13.212 8.05542 13.3018C8.27224 13.3916 8.46925 13.5232 8.63519 13.6891C8.80113 13.8551 8.93274 14.0521 9.02251 14.2689C9.11227 14.4857 9.15842 14.7181 9.15833 14.9528ZM13.325 15.6472C13.325 15.8818 13.2788 16.1142 13.189 16.3309C13.0992 16.5476 12.9675 16.7446 12.8016 16.9104C12.6357 17.0763 12.4387 17.2079 12.2219 17.2976C12.0051 17.3873 11.7728 17.4334 11.5382 17.4333C11.0644 17.4333 10.61 17.2451 10.275 16.9101C9.93995 16.5751 9.75173 16.1207 9.75173 15.6469C9.75173 15.1731 9.93995 14.7187 10.275 14.3837C10.61 14.0486 11.0644 13.8604 11.5382 13.8604C11.7729 13.8603 12.0053 13.9065 12.2221 13.9962C12.4389 14.086 12.6359 14.2176 12.8019 14.3836C12.9678 14.5495 13.0994 14.7465 13.1892 14.9633C13.2789 15.1802 13.3251 15.4126 13.325 15.6472ZM16.7972 12.8694C16.7972 13.1041 16.751 13.3364 16.6612 13.5531C16.5714 13.7699 16.4398 13.9668 16.2738 14.1327C16.1079 14.2985 15.9109 14.4301 15.6941 14.5198C15.4774 14.6095 15.245 14.6556 15.0104 14.6556C14.5366 14.6556 14.0822 14.4673 13.7472 14.1323C13.4122 13.7973 13.224 13.3429 13.224 12.8691C13.224 12.3953 13.4122 11.9409 13.7472 11.6059C14.0822 11.2709 14.5366 11.0826 15.0104 11.0826C15.2451 11.0826 15.4775 11.1287 15.6943 11.2185C15.9111 11.3082 16.1081 11.4398 16.2741 11.6058C16.44 11.7717 16.5716 11.9687 16.6614 12.1856C16.7512 12.4024 16.7973 12.6348 16.7972 12.8694ZM20.9639 13.5639C20.9639 13.7985 20.9177 14.0308 20.8279 14.2476C20.7381 14.4643 20.6064 14.6612 20.4405 14.8271C20.2746 14.993 20.0776 15.1245 19.8608 15.2142C19.644 15.304 19.4117 15.3501 19.1771 15.35C18.7033 15.35 18.2489 15.1618 17.9139 14.8268C17.5788 14.4917 17.3906 14.0373 17.3906 13.5635C17.3906 13.0897 17.5788 12.6354 17.9139 12.3003C18.2489 11.9653 18.7033 11.7771 19.1771 11.7771C19.4118 11.777 19.6441 11.8232 19.861 11.9129C20.0778 12.0027 20.2748 12.1343 20.4407 12.3002C20.6067 12.4662 20.7383 12.6632 20.8281 12.88C20.9178 13.0968 20.964 13.3292 20.9639 13.5639Z" fill="#BE1931"/>
<path d="M22.2889 9.37362C19.1993 6.41667 10.834 3.00556 5.39931 2.48751C5.32355 2.48087 5.24774 2.49975 5.18395 2.54115C5.12015 2.58255 5.07202 2.64409 5.04722 2.71598C5.04722 2.71598 1.5875 12.3181 0.746529 14.9528C0.625001 15.3333 0.687501 15.8264 0.687501 15.8535C0.687501 15.9576 0.736112 16.057 0.817362 16.1215C0.858219 16.1528 0.905562 16.1745 0.955915 16.1851C1.00627 16.1957 1.05835 16.1948 1.10833 16.1826L22.4951 10.8028C22.5584 10.7867 22.6156 10.7527 22.6599 10.7047C22.7042 10.6568 22.7335 10.597 22.7444 10.5326C22.7861 10.3028 22.734 9.80001 22.2889 9.37362Z" fill="#F4900C"/>
<path d="M22.2889 9.37362C19.1993 6.41667 10.834 3.00556 5.39931 2.48751C5.32354 2.48087 5.24774 2.49975 5.18394 2.54115C5.12015 2.58255 5.07202 2.64409 5.04722 2.71598C5.04722 2.71598 0.6875 14.9451 0.6875 15.159C0.6875 15.2632 0.736111 15.3625 0.817361 15.4271C0.858218 15.4584 0.905562 15.4801 0.955914 15.4907C1.00627 15.5012 1.05835 15.5004 1.10833 15.4882L22.0764 10.1139C22.1396 10.0977 22.1967 10.0636 22.2409 10.0157C22.2852 9.96773 22.3146 9.90803 22.3257 9.84376C22.3674 9.6139 22.734 9.80001 22.2889 9.37362Z" fill="#F4900C"/>
<path d="M6.70139 14.0549L5.42847 12.3493L8.5243 11.9833L9.52152 13.332L13.3993 12.3382L12.759 11.4826L15.6882 11.1361L16.0847 11.6722L19.9535 10.6611L19.9333 10.634L20.159 10.6076L22.6681 9.95209C22.5886 9.73251 22.4587 9.53462 22.2889 9.37431C21.8639 8.96737 21.3306 8.55209 20.7271 8.13612L18.2486 8.38265L16.9007 6.58056L17.884 6.46459C15.4986 5.24167 12.6542 4.13056 9.95694 3.38473L10.9549 4.73473L7.93541 5.03473L6.77569 3.48334L9.225 3.19376C7.87014 2.84931 6.56528 2.59862 5.3993 2.48751C5.32354 2.48087 5.24774 2.49975 5.18394 2.54115C5.12015 2.58255 5.07202 2.64409 5.04722 2.71598C5.04722 2.71598 4.09166 5.20626 3.125 8.09167L5.52291 7.92501L6.70972 9.52987L3.55764 9.84306L2.84791 8.9132C2.34722 10.409 1.75903 11.9424 1.35486 13.166L2.82986 15.0472L6.70139 14.0549ZM12.6875 7.07778L13.9667 8.80765L10.9799 9.10487L9.72569 7.42778L12.6875 7.07778Z" fill="#FFCC4D"/>
<path d="M7.54306 12.1437C8.10347 11.9923 9.22361 11.2847 10.3299 11.1326C11.4368 10.9805 12.7819 11.5611 13.1826 11.5139L14.7889 11.3243C15.1472 11.2819 16.7535 10.3951 17.6868 10.2646C18.6201 10.134 19.8708 10.7937 20.3194 10.6701C20.3194 10.6701 20.8181 10.8111 20.3194 10.8743C19.8208 10.9375 18.5132 10.4264 17.7875 10.5465C16.7444 10.7201 16.0007 11.3187 14.7889 11.5139C14.0583 11.6312 13.5444 11.7271 13.1076 11.7618C12.2993 11.8271 11.3021 11.2208 10.2819 11.3944C9.26181 11.568 8.70208 12.2576 7.54236 12.3694C6.85556 12.4361 7.11458 12.2597 7.54306 12.1437ZM4.54306 14.2C5.37222 14.0069 6.32778 13.6847 6.70139 14.0542L4.83264 14.7708L2.82986 15.0465C2.82917 15.0472 2.89375 14.584 4.54306 14.2ZM11.3861 12.4278C12.4201 12.1805 13.0972 12.1326 13.3986 12.3382L11.5097 13.05L9.52083 13.3319C9.52153 13.3319 9.69306 12.8326 11.3861 12.4278Z" fill="#F4900C"/>
<path d="M17.8528 10.8215C18.6042 10.6153 19.5743 10.5174 19.8201 10.5757C19.8201 10.5757 21.8042 10.0611 22.5917 9.97083C22.5917 9.97083 20.7833 10.5896 20.2222 10.7347C19.6611 10.8792 16.1243 11.8569 16.084 11.6722C16.0444 11.4875 16.6958 11.1403 17.8528 10.8215Z" fill="#F4900C"/>
<path d="M1.35416 13.166C1.35416 13.166 1.30208 12.3347 1.88055 10.8333C2.45902 9.33193 2.71389 8.73818 2.84722 8.91318C2.98055 9.08818 2.45902 10.9958 2.25625 11.4583C2.05347 11.9208 1.73055 12.875 1.57639 13.0639C1.42291 13.2535 1.35416 13.166 1.35416 13.166ZM3.125 8.09096C3.125 8.09096 3.16805 7.03124 3.42847 6.29305C3.68889 5.55485 4.15625 5.12499 4.21875 4.95207C4.28125 4.77916 4.26736 3.90555 4.44097 3.50068C4.61458 3.09582 4.96736 2.31249 5.39861 2.4868C5.82986 2.6611 4.42986 5.48332 4.2625 6.04721C4.09444 6.6118 3.125 8.09096 3.125 8.09096Z" fill="#FFCC4D"/>
<path d="M4.76528 7.97709C5.32569 7.8257 6.44514 7.11806 7.55208 6.96598C8.65903 6.8139 10.0042 7.39445 10.4049 7.34723L12.0111 7.15765C12.3694 7.11528 13.9757 6.22848 14.909 6.09792C15.8424 5.96737 17.0931 6.62709 17.5417 6.50348C17.5417 6.50348 18.0403 6.64445 17.5417 6.70765C17.0431 6.77084 15.7354 6.25973 15.0097 6.37987C13.9667 6.55348 13.2229 7.15278 12.0111 7.34723C11.2806 7.46459 10.7667 7.56042 10.3299 7.59515C9.52153 7.66042 8.5243 7.05417 7.50417 7.22778C6.48403 7.4014 5.9243 8.09098 4.76458 8.20278C4.07778 8.26945 4.3368 8.09306 4.76528 7.97709ZM6.14444 12.2639C5.61736 12.3264 4.88819 11.7257 3.57292 11.9604C2.25694 12.1958 1.35417 13.166 1.35417 13.166L1.43889 13.5639C1.43889 13.5639 1.10555 13.3299 1.56875 13.1861C2.03194 13.0424 2.51736 12.3306 3.64583 12.209C4.7743 12.0875 5.14305 12.4785 5.90278 12.5C6.6625 12.5215 6.14444 12.2639 6.14444 12.2639ZM19.4444 10.5799L20.541 10.6438L20.8333 10.4167L20.6382 11.0347L19.7264 11.316L19.4444 10.5799ZM4.94792 3.27709C5.96805 2.99515 6.63264 3.5007 7.37083 3.4132C8.10903 3.3257 8.11944 3.52917 7.55208 3.64584C6.98472 3.76251 5.56597 3.26737 4.97847 3.45903C4.39097 3.6507 4.29444 4.25765 4.29444 4.25765L4.39167 3.6507C4.39097 3.6507 4.27847 3.46181 4.94792 3.27709ZM6.31667 9.56806C7.74722 9.3389 7.84722 8.97987 8.91944 8.76667C9.89583 8.57223 10.5035 9.03265 11.0521 9.03265C11.9437 9.03265 11.6715 8.4882 11.3715 8.61598C10.7424 8.88403 9.47292 8.12153 8.225 8.61598C7.58819 8.86806 7.29514 9.21667 6.31667 9.33959C5.33889 9.46181 5.80417 9.6507 6.31667 9.56806ZM13.5194 8.85209C14.1167 8.79306 15.0389 8.23959 15.95 8.09167C16.8611 7.94306 17.6771 8.4389 18.2479 8.38265C18.8187 8.3257 18.9354 8.01876 18.4896 8.0639C18.0437 8.10903 16.9056 7.61806 15.7986 7.83473C14.6917 8.05139 14.2576 8.50764 13.5194 8.61598C12.7819 8.72362 13.0722 8.89653 13.5194 8.85209ZM2.26528 9.85556C2.7618 9.72501 3.27847 10.0195 3.82014 9.81667C4.3618 9.6139 4.39792 9.37501 3.8993 9.50556C3.40069 9.63612 2.82222 9.41181 2.37708 9.5889L2.26528 9.85556ZM5.9243 4.83959C6.86528 4.79723 7.38541 5.0882 8.05416 5.02153C8.72222 4.95487 8.44236 4.78473 7.95417 4.81181C7.46528 4.83959 6.75833 4.5139 5.74444 4.70903C4.73055 4.90417 4.78125 5.10626 3.99653 5.2764L3.81944 5.5264C3.81944 5.5264 4.17361 5.45348 4.57153 5.2764C4.96944 5.10001 5.40486 4.86251 5.9243 4.83959ZM10.8069 4.74792C11.4229 4.71112 11.941 4.25765 12.6 4.21251L12.2174 4.08056C12.2174 4.08056 11.4354 4.4889 10.8062 4.53403C10.1778 4.57917 10.1556 4.78681 10.8069 4.74792Z" fill="#F4900C"/>
</svg>
