<svg width="128" height="128" viewBox="0 0 128 128" fill="none" xmlns="http://www.w3.org/2000/svg">
<path d="M63.87 43.71C63.87 43.71 5.32 49.66 5.56 55.41C5.75 60.01 4.46 75.75 17.64 91.85C26.28 102.4 41.42 112.57 66.17 112.57C90.51 112.57 103.88 101.33 112.21 89.17C122.91 73.53 122.38 58.86 122.38 55.22C122.37 47.93 76.72 40.84 63.87 43.71Z" fill="#D5D5D5"/>
<path d="M66.9 30.59C66.9 30.59 62.95 28 59.34 28.33C55.73 28.67 54.04 30.81 54.04 30.81L42.73 58.95L54.76 72.37L62.61 77.81L77.8 77.43L84.51 30.72L66.9 30.59Z" fill="#307D31"/>
<path d="M67.66 37.46C67.66 37.46 64.91 32.83 64.58 28.87C64.25 24.91 67.35 22.63 69 22.63C73.04 22.63 73.5 25.13 75.92 24.91C78.34 24.69 79.12 22.55 79.77 19.29C80.43 15.97 83.28 14.1 85.87 15.75C88.36 17.34 87.48 22.04 87.48 22.04C87.48 22.04 89.46 19.62 91.67 21.38C93.63 22.95 92.99 27.77 92.99 27.77C92.99 27.77 97.29 22.81 100.92 25.24C104.55 27.67 101.8 36.03 101.8 36.03L100.59 43.52L79.89 35.59C79.89 35.59 78.68 32.73 74.27 33.06C69.87 33.39 67.66 37.46 67.66 37.46ZM45.53 57.29C45.53 57.29 49.23 49.78 57.28 52.29C65.72 54.92 64.19 63.05 64.19 63.05C64.19 63.05 66.35 61.47 68.88 61.25C71.41 61.03 74.5 61.47 74.5 61.47L74.1 57.11C74.1 57.11 68.73 57.82 65.47 53.98C61.09 48.81 64.04 42.86 64.04 42.86L64.81 39.12L57.1 34.16L51.81 27.33C51.81 27.33 50.05 23.48 45.31 23.26C40.57 23.04 38.34 26.38 38.34 26.38C38.34 26.38 28.19 23.45 23.01 27.85C19.51 30.83 20.42 35.71 20.42 35.71C20.42 35.71 17.96 37.17 13.71 33.6C11.82 32.01 8.11999 33.22 7.56999 36.2C7.01999 39.17 8.19999 42.88 8.19999 42.88L4.78999 44.97L16.35 56.86L45.53 57.29Z" fill="#58A12F"/>
<path d="M71.19 54.64C71.19 54.64 66.5 54.91 62.93 46.6C60.79 41.62 62.29 31.96 67.34 32.94C71.3 33.71 70.75 40.43 73.51 40.98C74.88 41.25 77.92 34.04 84.41 33.6C89.69 33.24 96.63 40.21 96.63 40.21C96.63 40.21 99.71 38.01 100.04 37.24C100.37 36.47 100.92 33.5 104.34 33.72C108.13 33.96 107.64 38.13 107.64 38.13C107.64 38.13 112.16 36.37 115.46 38.02C119.01 39.8 118.76 43.2 118.76 43.2C118.76 43.2 121.95 39.79 124.49 41.55C127.03 43.31 119.87 57.36 113.04 64.41C106.21 71.46 97.37 70.99 97.37 70.99L71.19 54.64Z" fill="#86C82C"/>
<path d="M27.92 32.02L27.09 30.41C27.09 30.41 29.62 27.14 35.26 28.04C41.45 29.03 42.07 33.34 42.07 33.34C42.07 33.34 38.88 34.55 38.78 34.4C38.68 34.25 35.69 31.11 35.69 31.11L29.77 31.31L27.92 32.02Z" fill="#D2608C"/>
<path d="M28.51 33.24C28.51 33.24 31.39 31.88 34.22 32.49C37.05 33.1 37.71 35.37 37.71 35.37L40.34 34.31C40.34 34.31 38.68 30.75 34.77 30.06C30.48 29.3 27.84 31.89 27.84 31.89L28.51 33.24Z" fill="white"/>
<path d="M27.58 37.38C27.58 37.38 36.78 34.77 40.3 33.03C45.94 30.24 50.84 27.73 52.27 26.77C53.03 26.26 53.56 25.68 54.58 25.89C55.6 26.1 64.77 44.34 49.82 50.98C43.77 53.67 37.27 54.58 37.27 54.58L27.93 46.69L27.58 37.38Z" fill="#FE2A19"/>
<path d="M30.77 40.03C30.55 40.68 35.47 50.05 45.8 46.22C55.52 42.62 52.33 31.12 51.72 30.71C51.32 30.45 46.71 33 41.73 35.22C36.53 37.53 30.95 39.51 30.77 40.03Z" fill="#CB1C35"/>
<path d="M38.15 41.86C39.85 42.53 42.1 41.83 44.37 40.85C46.46 39.95 49.04 38.55 49.11 37.04C49.18 35.54 45.51 33.86 44.55 33.89C43.6 33.93 39.32 35.81 38.75 36.72C38.18 37.64 36.91 41.37 38.15 41.86Z" fill="#FF5F5D"/>
<path d="M37 41.82C36.04 41.57 35.16 42.52 34.92 43.63C34.61 45.08 36.01 45.39 36.65 44.86C37.64 44.04 37.91 42.05 37 41.82ZM42.16 42.6C41.21 42.63 40.85 44.15 41.18 45.24C41.6 46.67 43.03 46.29 43.28 45.5C43.74 44.1 43.1 42.57 42.16 42.6ZM47.29 40.07C46.6 40.68 47.27 42.04 48.19 42.65C49.39 43.45 50.22 42.29 49.92 41.54C49.39 40.21 47.97 39.47 47.29 40.07ZM49.13 35.71C49.18 36.6 50.59 36.96 51.58 36.67C52.88 36.29 52.49 34.94 51.76 34.69C50.46 34.24 49.08 34.83 49.13 35.71Z" fill="#F7CA76"/>
<path d="M47.76 59.21C48.67 56.75 53.44 52.81 58.48 56.44C63.39 59.98 61.14 65.8 59.04 67.71C56.76 69.79 52.22 70.4 49.67 67.58C47.12 64.76 46.54 62.5 47.76 59.21Z" fill="#E9FCAE"/>
<path d="M18.32 62.6C18.58 62.28 19.23 61.46 18.83 60.02C18.16 57.61 16.46 54.64 13.21 50.81C7.53999 44.13 4.72999 42.39 2.92999 44.29C1.01999 46.31 3.71999 51.03 7.30999 55.36C10.9 59.69 16.69 64.62 18.32 62.6Z" fill="#307D31"/>
<path d="M16.41 58.5C15.86 58.95 12.87 56.87 9.78 53.22C6.69 49.57 4.42001 46.5 5.40001 45.75C6.64001 44.8 11.13 49.51 12.31 51.14C13.49 52.77 17.64 57.49 16.41 58.5Z" fill="#E9FCAE"/>
<path d="M81.34 39.45L83.03 37.82C83.03 37.82 88.5 45.09 92.8 41.86C97.97 37.98 92.86 31.69 92.86 31.69L95.11 30.57L98.09 35.18L98.31 41.7L93.2 46.14C93.2 46.14 87.58 46.14 87.13 45.47C86.68 44.79 81.34 39.45 81.34 39.45Z" fill="white"/>
<path d="M79.6 40.97L81.83 38.99C81.83 38.99 88.14 47.94 94.44 43.29C100.48 38.82 94.93 30.67 94.93 30.67L97.16 29.36C97.16 29.36 101.58 34.35 99.83 40.88C98.42 46.12 93.19 48.57 88.92 47.67C82.22 46.25 79.6 40.97 79.6 40.97Z" fill="#D2608C"/>
<path d="M88.92 52.48C88.92 52.48 89.1 48.32 94.92 43.68C100.74 39.04 105.63 40.31 107.26 41.7C108.9 43.1 110.85 48.24 106.42 53.82C104.3 56.48 102.66 56.86 100.35 56.65C97.65 56.4 92.96 54.06 92.96 54.06L88.92 52.48Z" fill="#2C7B2E"/>
<path d="M105.05 43.55C102.62 41.94 97.61 44.49 95.03 46.9C92.28 49.48 91.52 52.4 91.52 52.4L97.53 54.52C97.53 54.52 100.91 54.44 103.17 51.86C106.54 48.02 106.87 44.76 105.05 43.55Z" fill="#E0FEAC"/>
<path d="M72.43 45.73C71.59 46.15 68.45 49.83 69.38 57.15C70.35 64.72 75.76 69.7 84.72 70.35C96.19 71.17 102.64 62.77 103.52 61.25C104.4 59.73 106.16 56.39 104.93 55.28C103.7 54.17 96.03 53.7 87.19 50.95C77.26 47.85 74.3 44.79 72.43 45.73Z" fill="#FE2A19"/>
<path d="M76.4 49.99C75.15 50.61 73.92 61.72 83.73 64.97C92.18 67.77 98.46 58.47 97.82 57.23C97.18 55.99 93.37 56.41 87.08 54.18C80.78 51.94 77.38 49.51 76.4 49.99Z" fill="#CB1C35"/>
<path d="M80.68 55.89C80.97 57.36 82.34 59.15 85.45 60.48C87.92 61.54 90.57 61.07 91.69 60.6C92.81 60.13 92.38 55.67 91.87 55.54C90.28 55.13 85.46 53.48 83.99 52.89C83.04 52.51 80.37 54.31 80.68 55.89Z" fill="#FE6261"/>
<path d="M80.12 56C80.07 55.08 78.58 54.77 77.54 55.11C76.17 55.55 76.57 56.92 77.34 57.15C78.71 57.57 80.17 56.91 80.12 56ZM83.13 59.84C82.41 59.27 81.19 60.18 80.76 61.19C80.19 62.51 81.48 63.12 82.16 62.69C83.38 61.93 83.84 60.4 83.13 59.84Z" fill="#F7CA76"/>
<path d="M68.86 76.25C68.86 76.25 69.13 74.44 67.81 71.82C67.24 70.69 64.99 68.44 66.68 66.5C68.37 64.57 74.09 65.78 75.94 66.18C77.79 66.58 80.77 66.5 81.9 65.37C83.03 64.24 83.83 59.57 87.94 58.44C92.18 57.28 94.18 61.02 95.91 62.55C97.28 63.76 99.29 64.24 102.11 63.27C104.93 62.3 104.12 66.01 104.12 66.01L100.82 73.34L68.86 76.25ZM17.89 65.95C17.89 65.95 14.91 60.23 12.98 51.45C11.05 42.67 11.2 39.79 13.22 39.13C16.68 38 19.02 42.19 20.23 41.95C21.44 41.71 21.68 36.63 25.22 35.83C28.76 35.02 30.13 38.25 31.9 41.15C33.67 44.05 36.97 51.78 36.97 51.78C36.97 51.78 40.11 50.33 42.85 51.78C45.59 53.23 48.25 57.58 49.37 60.64C50.5 63.7 51.6 66.39 51.6 66.39C51.6 66.39 55.47 67.12 59.03 69.26C63.06 71.68 64.99 76.43 64.99 76.43L45.19 77.7C45.19 77.7 21.19 69.08 20.95 68.68C20.7 68.28 17.64 65.62 17.89 65.95Z" fill="#86C82C"/>
<path d="M21.03 69.09C21.03 69.09 19.82 66.19 20.22 62.49C20.62 58.79 22.35 56.43 25.25 56.43C27.51 56.43 31.41 57.9 35.2 63.21C38.99 68.52 39.47 73.36 39.47 73.36L23.44 71.27L21.03 69.09Z" fill="#2D792A"/>
<path d="M22.07 68.04C22.07 68.04 20.5 61.65 22.47 60.15C23.84 59.1 25.93 59.43 29.72 63.61C34.04 68.39 34.95 72.55 34.95 72.55L22.07 68.04Z" fill="#E7FCAE"/>
<path d="M41.51 74.12L43.36 74.28C43.36 74.28 44.41 69.37 48.51 67.35C52.46 65.42 56.64 67.03 56.64 67.03L57.28 64.69L52.93 62.92L47.05 64.13C47.05 64.13 41.73 68.96 41.73 69.2C41.73 69.44 41.51 73.88 41.51 74.12Z" fill="white"/>
<path d="M38.3 74.83C38.3 74.59 38.79 67.83 44.5 64.04C51.75 59.23 57.75 63.32 57.75 63.32L57 65.63C57 65.63 50.76 62.9 45.95 67.02C42 70.4 41.12 75.48 41.12 75.48L38.3 74.83Z" fill="#D2608C"/>
<path d="M67.45 108.67C102.22 108.56 114.02 80.47 116.83 70.07C118.67 63.26 119.33 57.07 119.33 57.07L107.13 70.81C107.13 70.81 68.87 78.15 67.59 78.15C66.31 78.15 45.17 76.45 45.17 76.45L23.45 71.26L8.56 56.84C8.56 56.84 8.84 65.81 11.25 72.62C13.11 77.87 23.88 108.81 67.45 108.67Z" fill="#F6F6F6"/>
<path d="M64.04 80.43C80.64 80.64 104.9 76.32 113.99 67.23C119.81 61.41 119.38 56.16 119.38 56.16C119.38 56.16 108.88 75.99 63.89 75.32C25.73 74.75 8.53 56.79 8.53 56.79C8.53 56.79 9.55 62.97 14.23 66.81C25.3 75.86 41.9 80.14 64.04 80.43ZM20.46 78.82C18.51 80.65 20.62 85.3 25.38 89.49C30.14 93.68 34.9 97.04 37.28 94.66C39.75 92.19 33.92 86.29 30.63 83.42C27.34 80.55 23 76.44 20.46 78.82Z" fill="white"/>
</svg>
