<svg width="32" height="32" viewBox="0 0 32 32" fill="none" xmlns="http://www.w3.org/2000/svg">
<path d="M11.48 10.96C12.6682 10.96 13.8077 10.488 14.6478 9.64784C15.488 8.80768 15.96 7.66817 15.96 6.48C15.96 5.29183 15.488 4.15232 14.6478 3.31216C13.8077 2.472 12.6682 2 11.48 2C10.2918 2 9.15232 2.472 8.31216 3.31216C7.472 4.15232 7 5.29183 7 6.48C7 7.66817 7.472 8.80768 8.31216 9.64784C9.15232 10.488 10.2918 10.96 11.48 10.96Z" fill="#00D26A"/>
<path d="M11.48 9.8C12.3605 9.8 13.205 9.45022 13.8276 8.82759C14.4502 8.20497 14.8 7.36052 14.8 6.48C14.8 5.59948 14.4502 4.75503 13.8276 4.13241C13.205 3.50978 12.3605 3.16 11.48 3.16C10.5995 3.16 9.75503 3.50978 9.13241 4.13241C8.50978 4.75503 8.16 5.59948 8.16 6.48C8.16 7.36052 8.50978 8.20497 9.13241 8.82759C9.75503 9.45022 10.5995 9.8 11.48 9.8Z" fill="#C3EF3C"/>
<path d="M21.19 6.69C21.48 9.06 22.18 11.36 23.24 13.52C23.76 14.58 24.05 15.78 24.05 17.05C24.05 21.23 20.86 24.665 16.78 25.043V28.61H20.38C20.4817 28.6041 20.5835 28.619 20.6793 28.6537C20.775 28.6884 20.8627 28.7422 20.9371 28.8119C21.0114 28.8815 21.0707 28.9656 21.1115 29.0589C21.1523 29.1522 21.1737 29.2529 21.1744 29.3547C21.1751 29.4566 21.155 29.5575 21.1155 29.6514C21.0759 29.7452 21.0177 29.8301 20.9443 29.9007C20.8709 29.9714 20.784 30.0264 20.6887 30.0623C20.5934 30.0983 20.4918 30.1145 20.39 30.11H11.68C11.4811 30.11 11.2903 30.031 11.1497 29.8903C11.009 29.7497 10.93 29.5589 10.93 29.36C10.93 29.1611 11.009 28.9703 11.1497 28.8297C11.2903 28.689 11.4811 28.61 11.68 28.61H15.28V25.043C14.9914 25.0165 14.7044 24.9755 14.42 24.92C11.27 24.31 8.75 21.77 8.15 18.63C7.79 16.74 8.1 14.94 8.87 13.42C9.94 11.32 10.6 9.04 10.87 6.7C10.92 6.31 11.23 6.02 11.62 6.02H20.44C20.83 6.02 21.14 6.31 21.19 6.69Z" fill="#AEDDFF"/>
<path d="M19.5 2C19.29 1.99995 19.0854 2.06599 18.915 2.18876C18.7447 2.31153 18.6173 2.48479 18.551 2.684L16.11 10.01L16.059 10.194H18.141L18.218 10.01L20.221 4H23.125V2H19.5Z" fill="#F8312F"/>
<path d="M23.75 3C23.75 3.552 23.47 4 23.125 4C22.78 4 22.5 3.552 22.5 3C22.5 2.448 22.78 2 23.125 2C23.47 2 23.75 2.448 23.75 3Z" fill="#990838"/>
<path d="M19.93 10.01H12.15C11.77 10.01 11.44 10.26 11.33 10.63C10.98 11.79 10.53 12.92 9.99 13.99C9.58 14.79 9.34 15.65 9.28 16.54C9.14 18.43 9.78 20.24 11.08 21.65C11.7125 22.3348 12.4794 22.8819 13.3328 23.257C14.1862 23.6321 15.1078 23.8271 16.04 23.83C16.17 23.83 16.3 23.83 16.43 23.82C17.5432 23.7525 18.6225 23.4113 19.5722 22.8267C20.522 22.2422 21.3128 21.4323 21.8746 20.4689C22.4365 19.5056 22.7519 18.4184 22.7929 17.304C22.834 16.1895 22.5994 15.0821 22.11 14.08C21.5649 12.9683 21.1101 11.8146 20.75 10.63C20.699 10.4517 20.5915 10.2948 20.4436 10.183C20.2957 10.0712 20.1154 10.0104 19.93 10.01Z" fill="#FF6723"/>
<path d="M15.02 13.2C15.1224 13.2 15.2239 13.1798 15.3185 13.1406C15.4131 13.1014 15.4991 13.044 15.5715 12.9715C15.644 12.8991 15.7014 12.8131 15.7406 12.7185C15.7798 12.6239 15.8 12.5224 15.8 12.42C15.8 12.3176 15.7798 12.2161 15.7406 12.1215C15.7014 12.0269 15.644 11.9409 15.5715 11.8685C15.4991 11.796 15.4131 11.7386 15.3185 11.6994C15.2239 11.6602 15.1224 11.64 15.02 11.64C14.8131 11.64 14.6147 11.7222 14.4685 11.8685C14.3222 12.0147 14.24 12.2131 14.24 12.42C14.24 12.6269 14.3222 12.8253 14.4685 12.9715C14.6147 13.1178 14.8131 13.2 15.02 13.2ZM18.28 15.92C18.4869 15.92 18.6853 15.8378 18.8315 15.6915C18.9778 15.5453 19.06 15.3469 19.06 15.14C19.06 14.9331 18.9778 14.7347 18.8315 14.5885C18.6853 14.4422 18.4869 14.36 18.28 14.36C18.0731 14.36 17.8747 14.4422 17.7285 14.5885C17.5822 14.7347 17.5 14.9331 17.5 15.14C17.5 15.3469 17.5822 15.5453 17.7285 15.6915C17.8747 15.8378 18.0731 15.92 18.28 15.92ZM15.8 18.16C15.8 18.3669 15.7178 18.5653 15.5715 18.7115C15.4253 18.8578 15.2269 18.94 15.02 18.94C14.8131 18.94 14.6147 18.8578 14.4685 18.7115C14.3222 18.5653 14.24 18.3669 14.24 18.16C14.24 17.9531 14.3222 17.7547 14.4685 17.6085C14.6147 17.4622 14.8131 17.38 15.02 17.38C15.2269 17.38 15.4253 17.4622 15.5715 17.6085C15.7178 17.7547 15.8 17.9531 15.8 18.16Z" fill="#FFB02E"/>
<path d="M20 8.5C20.1326 8.5 20.2598 8.55268 20.3536 8.64645C20.4473 8.74021 20.5 8.86739 20.5 9C20.5 9.74 20.656 10.298 20.715 10.446L20.722 10.465L20.728 10.485C21.0809 11.6432 21.5257 12.7715 22.058 13.859C22.553 14.859 22.8 15.935 22.8 17.06C22.8 17.1926 22.7473 17.3198 22.6536 17.4136C22.5598 17.5073 22.4326 17.56 22.3 17.56C22.1674 17.56 22.0402 17.5073 21.9464 17.4136C21.8527 17.3198 21.8 17.1926 21.8 17.06C21.8047 16.1036 21.5862 15.1592 21.162 14.302V14.3C20.6076 13.1701 20.1444 11.9977 19.777 10.794C19.67 10.508 19.5 9.838 19.5 9C19.5 8.86739 19.5527 8.74021 19.6464 8.64645C19.7402 8.55268 19.8674 8.5 20 8.5Z" fill="white"/>
</svg>
